External Loads File
version=1
nRows=55
nColumns=13
Range=5.000000e-03-10 seconds
endheader
time 	forceRightX 	forceRightY 	forceRightZ 	pointRightX 	pointRightY 	pointRightZ 	forceLeftX 	forceLeftY 	forceLeftZ 	pointLeftX 	pointLeftY 	pointLeftZ 		
0.005000 37.044002 228.312684 -0.000000 0.172589 0.169616 -0.165151 6.111188 150.112508 -0.000000 0.317570 0.473048 -0.415785
0.010000 37.225575 228.217573 -0.000000 0.172603 0.169617 -0.165153 5.917048 149.479216 -0.000000 0.317564 0.473054 -0.415775
0.015000 37.389874 228.068866 -0.000000 0.172617 0.169611 -0.165150 5.713367 148.839937 -0.000000 0.317559 0.473072 -0.415775
0.020000 37.526254 227.836010 -0.000000 0.172634 0.169598 -0.165139 5.522739 148.241535 -0.000000 0.317541 0.473017 -0.415775
0.025000 37.549991 227.531363 -0.000000 0.172703 0.169586 -0.165203 5.310397 147.698081 -0.000000 0.317515 0.473071 -0.415801
0.030000 37.573820 227.150285 -0.000000 0.172738 0.169567 -0.165193 5.158747 147.193495 -0.000000 0.317487 0.473047 -0.415793
0.035000 37.559191 226.720225 -0.000000 0.172774 0.169560 -0.165201 5.044970 146.713428 -0.000000 0.317450 0.473046 -0.415795
0.040000 37.503403 226.262569 -0.000000 0.172809 0.169521 -0.165214 4.967370 146.261227 -0.000000 0.317414 0.473064 -0.415793
0.045000 37.412852 225.786687 -0.000000 0.172854 0.169507 -0.165211 4.934887 145.871328 -0.000000 0.317384 0.473085 -0.415798
0.050000 37.272232 225.293543 -0.000000 0.172890 0.169489 -0.165197 4.941387 145.585878 -0.000000 0.317342 0.473096 -0.415790
0.055000 37.063239 224.778439 -0.000000 0.172941 0.169437 -0.165199 4.971958 145.424944 -0.000000 0.317309 0.473123 -0.415799
0.060000 36.828352 224.228773 -0.000000 0.172983 0.169447 -0.165208 5.044946 145.378308 -0.000000 0.317258 0.473135 -0.415799
0.065000 36.543542 223.655837 -0.000000 0.173046 0.169375 -0.165197 5.124593 145.407180 -0.000000 0.317227 0.473163 -0.415801
0.070000 36.272326 223.069513 -0.000000 0.173094 0.169325 -0.165202 5.232749 145.470096 -0.000000 0.317186 0.473178 -0.415788
0.075000 36.030922 222.488429 -0.000000 0.173130 0.169310 -0.165200 5.373224 145.549271 -0.000000 0.317143 0.473202 -0.415795
0.080000 35.795780 221.933651 -0.000000 0.173190 0.169270 -0.165190 5.521902 145.630100 -0.000000 0.317109 0.473239 -0.415789
0.085000 35.608444 221.415613 -0.000000 0.173239 0.169249 -0.165196 5.687227 145.691364 -0.000000 0.317066 0.473254 -0.415792
0.090000 35.466609 220.953408 -0.000000 0.173275 0.169204 -0.165190 5.839594 145.711175 -0.000000 0.317029 0.473263 -0.415791
0.095000 35.358136 220.573452 -0.000000 0.173314 0.169155 -0.165184 5.944283 145.679535 -0.000000 0.316990 0.473300 -0.415792
0.100000 35.332597 220.308655 -0.000000 0.173335 0.169120 -0.165194 6.031806 145.624964 -0.000000 0.316963 0.473304 -0.415789
0.105000 35.362548 220.213208 -0.000000 0.173367 0.169116 -0.165194 6.097219 145.584676 -0.000000 0.316924 0.473322 -0.415807
0.110000 35.465776 220.302400 -0.000000 0.173370 0.169086 -0.165198 6.161126 145.550981 -0.000000 0.316891 0.473347 -0.415801
0.115000 35.604332 220.537739 -0.000000 0.173413 0.169087 -0.165189 6.208854 145.489280 -0.000000 0.316860 0.473361 -0.415801
0.120000 35.772827 220.835496 -0.000000 0.173430 0.169067 -0.165198 6.245328 145.357307 -0.000000 0.316827 0.473358 -0.415798
0.125000 35.923605 221.124623 -0.000000 0.173455 0.169048 -0.165187 6.244242 145.125475 -0.000000 0.316803 0.473386 -0.415809
0.130000 36.027869 221.350587 -0.000000 0.173497 0.169024 -0.165192 6.206847 144.799326 -0.000000 0.316774 0.473412 -0.415810
0.135000 36.095596 221.463031 -0.000000 0.173522 0.168991 -0.165196 6.174418 144.409795 -0.000000 0.316748 0.473421 -0.415813
0.140000 36.102905 221.436145 -0.000000 0.173548 0.168980 -0.165207 6.162339 144.002437 -0.000000 0.316720 0.473439 -0.415817
0.145000 36.072770 221.271626 -0.000000 0.173556 0.168979 -0.165196 6.196755 143.624359 -0.000000 0.316692 0.473461 -0.415814
0.150000 35.985742 221.003784 -0.000000 0.173594 0.168949 -0.165190 6.253571 143.305711 -0.000000 0.316660 0.473482 -0.415828
0.155000 35.924652 220.655089 -0.000000 0.173618 0.168947 -0.165196 6.374695 143.067730 -0.000000 0.316640 0.473479 -0.415832
0.160000 35.867630 220.264658 -0.000000 0.173641 0.168924 -0.165206 6.540530 142.933059 -0.000000 0.316619 0.473484 -0.415836
0.165000 35.825113 219.861371 -0.000000 0.173677 0.168907 -0.165192 6.736261 142.893263 -0.000000 0.316599 0.473488 -0.415833
0.170000 35.804535 219.458541 -0.000000 0.173702 0.168916 -0.165204 6.928761 142.919203 -0.000000 0.316574 0.473489 -0.415841
0.175000 35.763915 219.071049 -0.000000 0.173728 0.168895 -0.165205 7.054673 142.986421 -0.000000 0.316560 0.473492 -0.415844
0.180000 35.687496 218.727643 -0.000000 0.173735 0.168896 -0.165189 7.084302 143.083036 -0.000000 0.316534 0.473511 -0.415844
0.185000 35.580594 218.466333 -0.000000 0.173749 0.168889 -0.165199 7.029209 143.228794 -0.000000 0.316526 0.473513 -0.415845
0.190000 35.470449 218.306310 -0.000000 0.173761 0.168895 -0.165200 6.926588 143.453623 -0.000000 0.316516 0.473505 -0.415845
0.195000 35.384379 218.258705 -0.000000 0.173748 0.168873 -0.165207 6.800898 143.760967 -0.000000 0.316504 0.473520 -0.415830
0.200000 35.366287 218.349593 -0.000000 0.173753 0.168876 -0.165203 6.674050 144.130460 -0.000000 0.316504 0.473508 -0.415841
0.205000 35.436430 218.607096 -0.000000 0.173750 0.168885 -0.165202 6.544667 144.516259 -0.000000 0.316515 0.473510 -0.415838
0.210000 35.585481 219.023287 -0.000000 0.173736 0.168896 -0.165200 6.399781 144.857239 -0.000000 0.316519 0.473513 -0.415851
0.215000 35.801417 219.545798 -0.000000 0.173700 0.168880 -0.165205 6.253841 145.116085 -0.000000 0.316531 0.473492 -0.415840
0.220000 36.022515 220.103620 -0.000000 0.173700 0.168909 -0.165206 6.109013 145.276712 -0.000000 0.316544 0.473485 -0.415840
0.225000 36.247678 220.610564 -0.000000 0.173675 0.168912 -0.165192 6.003127 145.322880 -0.000000 0.316574 0.473475 -0.415853
0.230000 36.437365 221.004940 -0.000000 0.173647 0.168920 -0.165203 5.929628 145.255652 -0.000000 0.316596 0.473461 -0.415846
0.235000 36.604198 221.248273 -0.000000 0.173609 0.168936 -0.165209 5.891830 145.092066 -0.000000 0.316632 0.473429 -0.415849
0.240000 36.724845 221.335518 -0.000000 0.173593 0.168963 -0.165205 5.861557 144.864656 -0.000000 0.316686 0.473396 -0.415858
0.245000 36.806127 221.268454 -0.000000 0.173556 0.169008 -0.165208 5.842941 144.621290 -0.000000 0.316740 0.473368 -0.415857
0.250000 36.841541 221.056093 -0.000000 0.173500 0.169041 -0.165208 5.829254 144.392756 -0.000000 0.316794 0.473327 -0.415876
0.255000 36.836323 220.717439 -0.000000 0.173445 0.169065 -0.165208 5.805751 144.176218 -0.000000 0.316869 0.473280 -0.415874
0.260000 36.795762 220.284700 -0.000000 0.173405 0.169092 -0.165223 5.756251 143.961485 -0.000000 0.316951 0.473226 -0.415879
0.265000 36.770710 219.787479 -0.000000 0.173340 0.169169 -0.165231 5.701016 143.733460 -0.000000 0.317034 0.473167 -0.415889
0.270000 36.741628 219.263149 -0.000000 0.173282 0.169229 -0.165223 5.619275 143.469063 -0.000000 0.317132 0.473107 -0.415884
0.275000 36.715423 218.740742 -0.000000 0.173206 0.169266 -0.165236 5.503715 143.136880 -0.000000 0.317236 0.473047 -0.415873
